<svg xmlns="http://www.w3.org/2000/svg" viewBox="0 0 360 120" role="img" aria-label="Cricket match artwork">
  <defs>
    <linearGradient id="sky" x1="0" y1="0" x2="1" y2="1">
      <stop offset="0" stop-color="#071528"/>
      <stop offset="0.45" stop-color="#102d46"/>
      <stop offset="1" stop-color="#ff982f"/>
    </linearGradient>
    <linearGradient id="field" x1="0" y1="0" x2="1" y2="0">
      <stop offset="0" stop-color="#063d33"/>
      <stop offset="0.55" stop-color="#0f6a4a"/>
      <stop offset="1" stop-color="#f0b84f"/>
    </linearGradient>
    <radialGradient id="glow" cx="68%" cy="34%" r="56%">
      <stop offset="0" stop-color="#fff2a8" stop-opacity="0.95"/>
      <stop offset="0.36" stop-color="#ff9f2d" stop-opacity="0.5"/>
      <stop offset="1" stop-color="#071528" stop-opacity="0"/>
    </radialGradient>
    <filter id="soft" x="-20%" y="-20%" width="140%" height="140%">
      <feGaussianBlur stdDeviation="4"/>
    </filter>
  </defs>
  <rect width="360" height="120" rx="34" fill="url(#sky)"/>
  <rect width="360" height="120" rx="34" fill="url(#glow)"/>
  <path d="M0 82 C54 65 107 67 158 82 C212 98 288 100 360 76 L360 120 L0 120 Z" fill="url(#field)"/>
  <path d="M28 88 C96 72 165 76 244 91" fill="none" stroke="#ffffff" stroke-opacity="0.18" stroke-width="3"/>
  <g opacity="0.88">
    <path d="M42 36 l-18 50" stroke="#d9e8ff" stroke-width="4" stroke-linecap="round" opacity="0.55"/>
    <path d="M318 34 l20 52" stroke="#d9e8ff" stroke-width="4" stroke-linecap="round" opacity="0.55"/>
    <g fill="#f7fbff">
      <circle cx="31" cy="29" r="4"/><circle cx="44" cy="29" r="4"/><circle cx="57" cy="29" r="4"/>
      <circle cx="31" cy="42" r="4"/><circle cx="44" cy="42" r="4"/><circle cx="57" cy="42" r="4"/>
      <circle cx="304" cy="29" r="4"/><circle cx="317" cy="29" r="4"/><circle cx="330" cy="29" r="4"/>
      <circle cx="304" cy="42" r="4"/><circle cx="317" cy="42" r="4"/><circle cx="330" cy="42" r="4"/>
    </g>
  </g>
  <g transform="translate(166 58) rotate(-25)">
    <rect x="-8" y="-2" width="118" height="16" rx="8" fill="#f7c877" stroke="#7a3a08" stroke-width="3"/>
    <rect x="92" y="-5" width="40" height="22" rx="7" fill="#48a1ff" stroke="#0c4b7d" stroke-width="3"/>
  </g>
  <g transform="translate(122 62)">
    <circle cx="0" cy="0" r="22" fill="#d51f3c" stroke="#ffbcc4" stroke-width="3"/>
    <path d="M-9 -19 C-2 -8 -1 9 -8 20" fill="none" stroke="#fff3f4" stroke-width="3" opacity="0.78"/>
    <path d="M5 -19 C12 -8 13 8 6 20" fill="none" stroke="#fff3f4" stroke-width="2" opacity="0.55"/>
  </g>
  <g transform="translate(238 37)">
    <circle cx="0" cy="0" r="18" fill="#fffaf1" stroke="#ff8a2d" stroke-width="3"/>
    <path d="M-12 -2 C-4 -9 8 -9 15 -1" fill="none" stroke="#ff8a2d" stroke-width="2"/>
    <path d="M-11 8 C-3 1 8 1 15 9" fill="none" stroke="#ff8a2d" stroke-width="2"/>
  </g>
  <g fill="#ffd15f" opacity="0.92">
    <circle cx="88" cy="24" r="2"/><circle cx="196" cy="20" r="2.5"/><circle cx="279" cy="68" r="2"/>
    <path d="M286 20 l4 8 8 4 -8 4 -4 8 -4 -8 -8 -4 8 -4z"/>
  </g>
  <ellipse cx="182" cy="104" rx="118" ry="12" fill="#04101b" opacity="0.22" filter="url(#soft)"/>
</svg>